<svg xmlns="http://www.w3.org/2000/svg" viewBox="0 0 12 12">
  <path fill="rgb(200,200,200)" fill-rule="evenodd" d="M7.14203688,8.1431484 C6.40011686,8.68212517 5.48718027,9 4.5,9 C2.0147185,9 0,6.9852815 0,4.5 C0,2.0147185 2.0147185,0 4.5,0 C6.9852815,0 9,2.0147185 9,4.5 C9,5.491013 8.67965208,6.40720469 8.13686067,7.15067065 L11.5,10.5 L10.5,11.5 L7.14203688,8.1431484 Z M4.5,8 C6.43299672,8 8,6.43299672 8,4.5 C8,2.56700328 6.43299672,1 4.5,1 C2.56700328,1 1,2.56700328 1,4.5 C1,6.43299672 2.56700328,8 4.5,8 Z"></path>
</svg>